<?xml version="1.0" encoding="UTF-8" standalone="no"?>
<!-- Created with Inkscape (http://www.inkscape.org/) -->

<svg
   width="58.446655mm"
   height="58.611034mm"
   viewBox="0 0 58.446655 58.611035"
   version="1.1"
   id="svg1"
   xml:space="preserve"
   sodipodi:docname="logo.svg"
   inkscape:version="1.3.1 (9b9bdc1480, 2023-11-25, custom)"
   xmlns:inkscape="http://www.inkscape.org/namespaces/inkscape"
   xmlns:sodipodi="http://sodipodi.sourceforge.net/DTD/sodipodi-0.dtd"
   xmlns="http://www.w3.org/2000/svg"
   xmlns:svg="http://www.w3.org/2000/svg"><sodipodi:namedview
     id="namedview1"
     pagecolor="#ffffff"
     bordercolor="#000000"
     borderopacity="0.25"
     inkscape:showpageshadow="2"
     inkscape:pageopacity="0.0"
     inkscape:pagecheckerboard="0"
     inkscape:deskcolor="#d1d1d1"
     inkscape:document-units="mm"
     inkscape:zoom="0.92301078"
     inkscape:cx="304.98019"
     inkscape:cy="381.36066"
     inkscape:window-width="1854"
     inkscape:window-height="1011"
     inkscape:window-x="66"
     inkscape:window-y="32"
     inkscape:window-maximized="1"
     inkscape:current-layer="layer1" /><defs
     id="defs1" /><g
     inkscape:label="Capa 1"
     inkscape:groupmode="layer"
     id="layer1"
     transform="translate(-5.1512785,-6.8745479)"><g
       id="g15"
       transform="rotate(20.781453,373.39996,-137.97932)"
       style="fill:#d1d7e0;stroke:#d1d7e0;stroke-opacity:1;fill-opacity:1"><g
         id="g13"
         style="fill:#d1d7e0;stroke:#d1d7e0;stroke-opacity:1;fill-opacity:1"><rect
           style="fill:#d1d7e0;fill-opacity:1;stroke:#d1d7e0;stroke-width:3;stroke-linecap:round;stroke-linejoin:round;stroke-dasharray:none;stroke-opacity:1"
           id="rect3"
           width="0.51253581"
           height="52.201458"
           x="108.95888"
           y="119.0884" /><rect
           style="fill:#d1d7e0;fill-opacity:1;stroke:#d1d7e0;stroke-width:3;stroke-linecap:round;stroke-linejoin:round;stroke-dasharray:none;stroke-opacity:1"
           id="rect4"
           width="0.51253581"
           height="52.283482"
           x="127.05698"
           y="119.04739" /></g><path
         d="m 136.30802,148.80291 c -1.9845,0 -3.60001,-1.61552 -3.60001,-3.60002 0,-1.9845 1.61551,-3.60001 3.60001,-3.60001 1.9845,0 3.60002,1.61551 3.60002,3.60001 0,1.9845 -1.61552,3.60002 -3.60002,3.60002 m 0,-8.10002 c -2.48851,0 -4.5,2.01149 -4.5,4.5 0,2.48851 2.01149,4.5 4.5,4.5 2.48851,0 4.5,-2.01149 4.5,-4.5 0,-2.48851 -2.01149,-4.5 -4.5,-4.5"
         id="path6"
         sodipodi:nodetypes="csssccsssc"
         style="fill:#d1d7e0;fill-opacity:1;stroke:#d1d7e0;stroke-width:3;stroke-linecap:round;stroke-linejoin:round;stroke-dasharray:none;stroke-opacity:1" /><g
         id="g4"
         transform="matrix(0.24712204,0.24712204,-0.24712204,0.24712204,118.27348,139.26884)"
         style="fill:#d1d7e0;fill-opacity:1;stroke:#d1d7e0;stroke-width:8.58411;stroke-linecap:round;stroke-linejoin:round;stroke-dasharray:none;stroke-opacity:1"><path
           d="M 12.997021,9.1829391 V -1.1662618 l -1.994042,5e-7 V 9.1829394 14.817063 25.166265 h 1.994042 V 14.817063 Z"
           id="path3"
           sodipodi:nodetypes="ccccccccc"
           style="fill:#d1d7e0;fill-opacity:1;stroke:#d1d7e0;stroke-width:8.58411;stroke-linecap:round;stroke-linejoin:round;stroke-dasharray:none;stroke-opacity:1" /><path
           d="M 14.817062,12.997023 H 25.166263 V 11.002981 H 14.817062 9.1829386 -1.1662634 v 1.994042 h 10.349202 z"
           id="path4"
           sodipodi:nodetypes="ccccccccc"
           style="fill:#d1d7e0;fill-opacity:1;stroke:#d1d7e0;stroke-width:8.58411;stroke-linecap:round;stroke-linejoin:round;stroke-dasharray:none;stroke-opacity:1" /></g><path
         d="m 100.14082,130.66933 c -1.984502,0 -3.600012,-1.61552 -3.600012,-3.60002 0,-1.9845 1.61551,-3.60001 3.600012,-3.60001 1.9845,0 3.60002,1.61551 3.60002,3.60001 0,1.9845 -1.61552,3.60002 -3.60002,3.60002 m 0,-8.10002 c -2.488512,0 -4.500002,2.01149 -4.500002,4.5 0,2.48851 2.01149,4.5 4.500002,4.5 2.48851,0 4.5,-2.01149 4.5,-4.5 0,-2.48851 -2.01149,-4.5 -4.5,-4.5"
         id="path10"
         sodipodi:nodetypes="csssccsssc"
         style="fill:#d1d7e0;fill-opacity:1;stroke:#d1d7e0;stroke-width:3;stroke-linecap:round;stroke-linejoin:round;stroke-dasharray:none;stroke-opacity:1" /><g
         id="g12"
         transform="matrix(0.24712204,0.24712204,-0.24712204,0.24712204,118.28277,157.37226)"
         style="fill:#d1d7e0;fill-opacity:1;stroke:#d1d7e0;stroke-width:8.58411;stroke-linecap:round;stroke-linejoin:round;stroke-dasharray:none;stroke-opacity:1"><path
           d="M 12.997021,9.1829391 V -1.1662618 l -1.994042,5e-7 V 9.1829394 14.817063 25.166265 h 1.994042 V 14.817063 Z"
           id="path11"
           sodipodi:nodetypes="ccccccccc"
           style="fill:#d1d7e0;fill-opacity:1;stroke:#d1d7e0;stroke-width:8.58411;stroke-linecap:round;stroke-linejoin:round;stroke-dasharray:none;stroke-opacity:1" /><path
           d="M 14.817062,12.997023 H 25.166263 V 11.002981 H 14.817062 9.1829386 -1.1662634 v 1.994042 h 10.349202 z"
           id="path12"
           sodipodi:nodetypes="ccccccccc"
           style="fill:#d1d7e0;fill-opacity:1;stroke:#d1d7e0;stroke-width:8.58411;stroke-linecap:round;stroke-linejoin:round;stroke-dasharray:none;stroke-opacity:1" /></g><g
         id="g14"
         transform="rotate(90,118.26419,145.18913)"
         style="fill:#d1d7e0;stroke:#d1d7e0;stroke-opacity:1;fill-opacity:1"><rect
           style="fill:#d1d7e0;fill-opacity:1;stroke:#d1d7e0;stroke-width:3;stroke-linecap:round;stroke-linejoin:round;stroke-dasharray:none;stroke-opacity:1"
           id="rect13"
           width="0.51253581"
           height="52.201458"
           x="108.95888"
           y="119.0884" /><rect
           style="fill:#d1d7e0;fill-opacity:1;stroke:#d1d7e0;stroke-width:3;stroke-linecap:round;stroke-linejoin:round;stroke-dasharray:none;stroke-opacity:1"
           id="rect14"
           width="0.51253581"
           height="52.283482"
           x="127.05698"
           y="119.04739" /></g></g></g></svg>
